<svg xmlns="http://www.w3.org/2000/svg" viewBox="0 0 291.764 291.764" xmlns:v="https://vecta.io/nano"><path d="M145.882 0c80.573 0 145.882 65.32 145.882 145.882s-65.3 145.882-145.882 145.882S0 226.446 0 145.882 65.3 0 145.882 0z" fill="#efc75e"/><path d="M145.882 27.353c-65.465 0-118.53 53.065-118.53 118.53s53.065 118.53 118.53 118.53 118.53-53.065 118.53-118.53-53.064-118.53-118.53-118.53zm0 218.823c-55.4 0-100.294-44.904-100.294-100.294S90.493 45.588 145.882 45.588s100.294 44.904 100.294 100.294-44.895 100.294-100.294 100.294zM158.01 138.27c-5.452-2.29-25.493-5.452-25.493-14.214 0-6.464 7.495-8.334 12-8.334 4.094 0 9 1.295 11.59 3.875 1.64 1.577 2.316 2.726 2.854 4.313.684 1.87 1.094 3.875 3.684 3.875H176c3.136 0 3.957-.574 3.957-4.02 0-14.79-11.59-23.122-24.81-25.994V86.28c0-2.58-.82-4.167-3.957-4.167h-10.64c-3.136 0-3.957 1.577-3.957 4.167v11.05c-14.178 2.726-26.03 11.634-26.03 27.718 0 18.235 12.683 23.98 26.44 28.566 11.59 3.884 23.724 4.02 23.724 12.063s-6 9.765-13.357 9.765c-5.05 0-10.63-1.304-13.366-4.74-1.77-2.152-2.453-4.02-2.58-5.9-.274-3.592-1.77-4.02-4.914-4.02h-13.22c-3.136 0-3.957.73-3.957 4.02 0 16.366 13.093 26.286 27.262 29.44v11.206c0 2.58.82 4.167 3.957 4.167h10.64c3.136 0 3.957-1.586 3.957-4.167v-10.905c16.084-2.453 27.125-12.21 27.125-29.44.016-19.522-14.435-23.69-24.255-26.844z" fill="#c93"/></svg>