<svg xmlns="http://www.w3.org/2000/svg" viewBox="0 0 512 512" xmlns:v="https://vecta.io/nano"><circle cx="256" cy="256" r="256" fill="#ff7069"/><path d="M433.405 437.875l-19.803-84.783s67.73-65.186 60.098-148.663c-7.564-83.546-91.728-136.01-177.2-113.25-85.402 22.76-99.567 91.178-99.98 102.455-.413 11.208 10.108 39.95 2.544 59.548s-34.793 50.334-32.25 59.48 25.923 10.727 25.923 10.727.275 8.87-2.82 10.727-1.375 9.283 3.782 13.34c5.088 4.126 13.615 6.876 13.615 6.876s-9.833 2.2-8.526 9.145c1.238 6.945 4.745 10.452 12.033 10.727 7.29.344 9.214-3.163 10.452.62s2.063 4.126 2.063 4.126-7.29 18.84-.963 32.73 16.16 13.96 27.505 11.07c11.414-2.82 33.556-9.145 33.556-9.145l6.05 30.874c5.5 39.263-17.122 61.817-23.38 67.25 65.53-2.544 124.803-29.774 168.673-72.612-.756-.688-1.306-1.1-1.444-1.306l.067.066z" fill="#ffe356"/><path d="M224.438 415.665c6.326 9.97 15.265 9.695 25.442 7.15 11.414-2.82 33.556-9.145 33.556-9.145l6.05 30.874c2.132 15.334 0 28.124-3.782 38.37h0c21.18-30.186 5.57-53.222 8.32-64.705s47.033-22.28 56.316-29.43 15.953-26.748 15.953-26.748-9.283 14.234-19.185 22.898-86.846 31.287-101.56 36.237c-13.96 4.676-20.56-4.47-21.18-5.432l.07-.07zm51.1-317.473c53.222-19.46 116.207-9.008 154.44 30.118 45.52 46.552 56.178 131.335-23.38 221l26.817 88.565-19.803-84.783s67.73-65.186 60.098-148.663c-7.564-83.546-91.728-136-177.2-113.25-7.564 1.994-14.5 4.4-20.973 7.014z" fill="#fcd34e"/><path d="M163.447 339.133c.894-1.306 1.925-2.475 2.957-3.576l5.088 5.02a21.19 21.19 0 0 0-2.269 2.682c-3.644 5.088-4.882 11.14-3.988 16.847.825 4.882 3.232 9.558 7.082 13.065l-4.813 5.295c-5.088-4.607-8.25-10.727-9.352-17.2h0c-1.238-7.495.413-15.54 5.157-22.2l.138.067zM116.62 286.46l5.088 5.02c-3.3 3.37-6.395 7.082-9.283 11.002-14.92 20.766-20 45.658-16.16 69.037 3.3 20.078 13.133 39.057 29.017 53.428l-4.813 5.295a99.85 99.85 0 0 1-31.287-57.554c-4.126-25.167 1.306-51.984 17.397-74.33 3.094-4.263 6.395-8.25 9.97-11.896h.07zm18.566 18.29l5.088 5.02c-2.407 2.407-4.607 5.088-6.67 7.908-10.727 14.92-14.37 32.8-11.62 49.646 2.338 14.44 9.49 28.055 20.835 38.438l-4.813 5.295c-12.652-11.483-20.49-26.61-23.104-42.564-3.094-18.634.963-38.438 12.858-54.94 2.27-3.163 4.745-6.12 7.358-8.802h.07zm16.16 15.953l5.088 5.02c-1.582 1.582-3.026 3.37-4.4 5.226-7.082 9.833-9.49 21.66-7.633 32.73 1.582 9.49 6.257 18.497 13.752 25.304l-4.813 5.295c-8.733-7.908-14.165-18.428-16.02-29.43-2.132-12.858.688-26.61 8.87-38.025 1.582-2.2 3.3-4.194 5.088-6.05l.07-.07z" fill="#fefefe"/></svg>