<svg xmlns="http://www.w3.org/2000/svg" viewBox="0 0 310 310" xmlns:v="https://vecta.io/nano"><path d="M296.7 62.1H13.3C5.9 62.1 0 68.1 0 75.4v159.2c0 7.3 5.9 13.3 13.3 13.3h283.5c7.3 0 13.3-5.9 13.3-13.3V75.4c-.1-7.3-6-13.3-13.4-13.3z" fill="#e8e8e8"/><path d="M296.7 62.1H13.3c-3.1 0-5.9 1.1-8.1 2.8l133.1 80c10.3 6.2 23.2 6.2 33.5 0l133.1-80c-2.3-1.7-5.1-2.8-8.2-2.8z" fill="#c3c6c8"/><path d="M193.1 138l115.2-69.2c-1.9-3.3-5.1-5.6-8.9-6.4l-130.2 78.2a27.62 27.62 0 0 1-28.3 0L10.7 62.4c-3.8.8-7 3.1-8.9 6.4L116.9 138 1.2 240.1c1.4 3.2 4.1 5.7 7.4 6.9L126 143.5l9.7 5.8c6 3.6 12.7 5.4 19.3 5.4 6.7 0 13.4-1.8 19.4-5.4l9.7-5.8L301.4 247c3.3-1.2 5.9-3.7 7.4-6.9L193.1 138z" fill="#586069"/><path d="M28.5 234.6c-7.3 0-13.3-5.9-13.3-13.3V62.1h-2C5.9 62.1 0 68.1 0 75.4v159.2c0 7.3 5.9 13.3 13.3 13.3h283.5c7.3 0 13.3-5.9 13.3-13.3h0H28.5z" opacity=".15" enable-background="new"/></svg>