<svg xmlns="http://www.w3.org/2000/svg" viewBox="0 0 32.6 31.8" xmlns:v="https://vecta.io/nano"><path d="M16.3 0a16.3 16.3 0 0 0-5.2 31.7c.9.2 1.2-.3 1.2-.7l-.1-2.8c-4.5 1-5.5-2.2-5.5-2.2a4.1 4.1 0 0 0-1.8-2.4c-1.4-1 .1-1 .1-1a3.2 3.2 0 0 1 2.5 1.7 3.6 3.6 0 0 0 4.8 1.4 3.5 3.5 0 0 1 1-2.2c-3.6-.4-7.4-1.8-7.4-8.1a6 6 0 0 1 1.7-4.3 5.5 5.5 0 0 1 .1-4.3s1.4-.5 4.5 1.6a18.4 18.4 0 0 1 4.1-.5 18.4 18.4 0 0 1 4.1.5c3.1-2.1 4.4-1.6 4.4-1.6a5.7 5.7 0 0 1 .2 4.3 6.4 6.4 0 0 1 1.7 4.3c0 6.3-3.8 7.7-7.5 8.1a3.8 3.8 0 0 1 1.1 3V31c0 .4.3.9 1.1.7A16.3 16.3 0 0 0 16.3 0z" fill="#fff" fill-rule="evenodd"/></svg>