<svg xmlns="http://www.w3.org/2000/svg" width="256" height="255" preserveAspectRatio="xMidYMid" xmlns:v="https://vecta.io/nano"><defs><linearGradient x1="12.9593594%" y1="12.0393928%" x2="79.6388325%" y2="78.2008538%" id="A"><stop stop-color="#387eb8" offset="0%"/><stop stop-color="#366994" offset="100%"/></linearGradient><linearGradient x1="19.127525%" y1="20.5791813%" x2="90.7415328%" y2="88.4290372%" id="B"><stop stop-color="#ffe052" offset="0%"/><stop stop-color="#ffc331" offset="100%"/></linearGradient></defs><path d="M126.916.072c-64.832 0-60.784 28.115-60.784 28.115l.072 29.127h61.868v8.745H41.63S.145 61.355.145 126.77s36.2 63.097 36.2 63.097h21.6v-30.356s-1.165-36.2 35.632-36.2h61.362s34.475.557 34.475-33.32V33.97c0 0 5.234-33.897-62.518-33.897h0zM92.802 19.66a11.12 11.12 0 1 1 0 22.261 11.12 11.12 0 1 1 0-22.261h0z" fill="url(#A)"/><path d="M128.757 254.126c64.832 0 60.784-28.115 60.784-28.115l-.072-29.127H127.6v-8.745h86.442s41.486 4.705 41.486-60.71-36.2-63.097-36.2-63.097h-21.6v30.356s1.165 36.2-35.632 36.2h-61.362s-34.475-.557-34.475 33.32v56.014s-5.234 33.897 62.518 33.897h0zm34.114-19.587a11.12 11.12 0 1 1 0-22.261 11.12 11.12 0 1 1 0 22.261h0z" fill="url(#B)"/></svg>