<svg xmlns="http://www.w3.org/2000/svg" viewBox="0 0 512 512" xmlns:v="https://vecta.io/nano"><path d="M229.432 113.753V30.968c0-17.102-13.864-30.966-30.966-30.966h-16.098c-17.102 0-30.966 13.864-30.966 30.966v83.806H79.43c-17.09 0-30.966 13.86-30.966 30.966v106.464c0 14.797 2.95 29.273 8.5 42.686 5.567 13.413 13.75 25.75 24.238 36.2 38.896 38.84 59.736 92.24 59.736 147.22v18.196c0 8.55 6.932 15.483 15.483 15.483h251.544c8.55 0 15.483-6.932 15.483-15.483v-57.26c0-32.38 7.804-64.295 22.742-93.023l4.937-9.497a110.04 110.04 0 0 0 12.42-50.77V113.753H229.432z" fill="#fdd1a7"/><path d="M463.535 168.62v117.345c0 17.68-4.266 35.092-12.42 50.77l-4.937 9.497a201.68 201.68 0 0 0-22.742 93.023v57.26c0 8.546-6.923 15.483-15.483 15.483H307.728v-90.73c0-135.415-122.03-153.933-122.03-153.933V168.62h277.838z" fill="#ffbc8a"/><g fill="#f5a871"><path d="M463.535 168.62v117.345c0 17.68-4.266 35.092-12.42 50.77l-4.937 9.497a201.68 201.68 0 0 0-22.742 93.023v57.26c0 8.546-6.923 15.483-15.483 15.483h-25.945c8.56 0 15.483-6.937 15.483-15.483v-57.26c0-32.378 7.818-64.295 22.756-93.023l4.923-9.497a110.04 110.04 0 0 0 12.42-50.77V168.62h25.945z"/><path d="M463.535 168.62v45.875c-10.224 8.98-23.623 14.434-38.267 14.434h-.517c-14.895 0-28.504-5.595-38.854-14.783-10.266 9.19-23.82 14.783-38.658 14.783h-.504c-14.895 0-28.504-5.595-38.854-14.783-10.28 9.19-23.833 14.783-38.658 14.783h-.518c-17.12 0-32.546-7.385-43.274-19.133a79.85 79.85 0 0 1-20.154 11.721v30.462c13.37 4.014 33.078 11.665 52.728 25.553 30.214 21.35 65.987 61.64 69.086 133.57.24 5.55-4.235 10.168-9.788 10.168h0c-5.252 0-9.55-4.15-9.777-9.398-5.494-126.882-121.83-144.535-121.83-144.535v-98.716h277.84z"/></g><path d="M307.488 30.967v139.888c0 21.263-17.245 38.498-38.508 38.498h-.505c-13.66 0-25.682-7.016-32.646-17.647-4.028-6.13-6.367-13.475-6.367-21.366V30.967C229.463 13.866 243.33 0 260.43 0h16.09c17.1 0 30.967 13.866 30.967 30.967z" fill="#fdd1a7"/><path d="M307.492 30.968v139.877c0 21.273-17.245 38.504-38.504 38.504h-.517c-4.6 0-9.035-.797-13.133-2.266 14.853-5.343 25.47-19.54 25.47-36.24V30.968c0-15.3-11.09-28-25.665-30.504 1.72-.308 3.483-.462 5.287-.462h16.084c17.104 0 30.98 13.86 30.98 30.966z" fill="#ffbc8a"/><path d="M307.486 30.968v139.377c0 21.544 17.465 39.008 39.008 39.008h.513c21.264 0 38.502-17.238 38.502-38.502V30.968C385.51 13.865 371.644 0 354.54 0h-16.088c-17.103 0-30.967 13.865-30.967 30.968z" fill="#fdd1a7"/><path d="M385.507 30.968v139.877c0 21.273-17.23 38.504-38.504 38.504h-.504c-4.615 0-9.035-.797-13.133-2.266 14.84-5.343 25.455-19.553 25.455-36.24V30.968c0-15.3-11.09-28-25.665-30.504 1.72-.308 3.497-.462 5.3-.462h16.084c17.106 0 30.966 13.86 30.966 30.966z" fill="#ffbc8a"/><path d="M385.51 30.966v139.38c0 21.544 17.465 39.008 39.008 39.008h.513c21.264 0 38.502-17.238 38.502-38.502V30.968C463.533 13.865 449.668 0 432.565 0h-16.1c-17.102 0-30.966 13.864-30.966 30.966z" fill="#fdd1a7"/><g fill="#ffbc8a"><path d="M463.537 30.968v139.877c0 21.273-17.245 38.504-38.504 38.504h-.517a38.9 38.9 0 0 1-13.133-2.266c14.853-5.343 25.47-19.553 25.47-36.24V30.968c0-15.3-11.077-28-25.665-30.504 1.72-.308 3.483-.462 5.287-.462h16.098c17.1 0 30.965 13.86 30.965 30.966zM151.402 95.194v29.033h78.06v-93.26c0-17.106-13.875-30.966-30.98-30.966h-16.084a29.95 29.95 0 0 0-5.287.462c14.574 2.504 25.665 15.203 25.665 30.504v64.225h-51.374z"/><path d="M250.468 129.865v17.472c0 16.596-5.44 31.956-14.64 44.37-4.028-6.13-6.367-13.475-6.367-21.366v-68.734c12.146 3.657 21.006 14.937 21.006 28.258z"/></g><path d="M143.592 114.775h77.362a15.09 15.09 0 0 1 15.087 15.087v17.47c0 33.29-26.988 60.278-60.278 60.278h-32.17v-92.836z" fill="#fdd1a7"/><path d="M122.897 224.915h62.8v-18.123h-62.8c-5.005 0-9.062 4.057-9.062 9.062h0c0 5.004 4.057 9.06 9.062 9.06z" fill="#ffbc8a"/></svg>