<svg xmlns="http://www.w3.org/2000/svg" viewBox="0 0 512.001 512.001" xmlns:v="https://vecta.io/nano"><path d="M397.24 114.76l3.836-42.186c.374-4.114 2.178-7.965 5.1-10.886l37.8-37.8a8.83 8.83 0 0 1 12.484 0l31.654 31.654a8.83 8.83 0 0 1 0 12.484l-37.8 37.8c-2.92 2.92-6.773 4.725-10.885 5.1l-42.188 3.835z" fill="#ff6464"/><circle cx="211.862" cy="300.139" r="211.862" fill="#707487"/><circle cx="211.862" cy="300.139" r="158.897" fill="#00d2ff"/><circle cx="211.862" cy="300.139" r="105.931" fill="#ff6464"/><circle cx="211.862" cy="300.139" r="52.966" fill="#ffe164"/><path d="M211.862 308.966c-2.26 0-4.518-.862-6.24-2.586-3.448-3.448-3.448-9.035 0-12.483l291.3-291.3c3.448-3.448 9.035-3.448 12.483 0s3.448 9.035 0 12.483l-291.3 291.3c-1.724 1.725-3.983 2.586-6.242 2.586z" fill="#464655"/><path d="M509.414 2.587c-3.448-3.448-9.035-3.448-12.483 0l-15.068 15.07 12.482 12.483 15.07-15.07c3.448-3.45 3.448-9.034 0-12.483z" fill="#ff6464"/></svg>