<svg xmlns="http://www.w3.org/2000/svg" viewBox="0 0 35 35" xmlns:v="https://vecta.io/nano"><path d="M.1 26.4h.8c.3 0 .3 0 .3.3v4.6a6.8 6.8 0 0 0 .2 1.4A1.6 1.6 0 0 0 3 34a1.7 1.7 0 0 0 1.9-1.2 4.1 4.1 0 0 0 .3-1.6v-4.5c-.1-.3 0-.3.3-.3s.8 0 .8.8l-.1 4.5a5.5 5.5 0 0 1-.3 1.7 2.4 2.4 0 0 1-2.1 1.5.1.1 0 0 0-.1.1h-.2a1.1 1.1 0 0 0-.8 0h-.3a2.7 2.7 0 0 1-2-1.3 5.7 5.7 0 0 1-.4-1.4.1.1 0 0 0 0-.2v-.4c.1-.1 0-.3 0-.4v-4.5a.6.6 0 0 1 .1-.4zm34.9.5c-.2.1-.1.3-.1.4s0 .4-.3.3a4.3 4.3 0 0 0-2.5-.2 3 3 0 0 0-2.3 2.4 4.2 4.2 0 0 0 .7 3.1 2.7 2.7 0 0 0 2.1.9 4.1 4.1 0 0 0 2.2-.3 2.8 2.8 0 0 1 .1.9c0 .1 0 .2-.1.2A5.8 5.8 0 0 1 30 34a3.6 3.6 0 0 1-1.4-2.7 4.1 4.1 0 0 1 4.6-4.9 3.2 3.2 0 0 1 1.4.2h.4z" fill="#063"/><path d="M0,32.1a.7.7,0,0,1,.1.5,2.8,2.8,0,0,0,2.2,2.3c.1,0,.1,0,.1.1H.2C0,35,0,35,0,34.8Z" fill="#fefefe"/><path d="M.1,26.4v4.9c0,.2,0,.3-.1.4V26.4Z" fill="#408c66"/><path d="M2.7,35a1.1,1.1,0,0,1,.8,0Z" fill="#428d68"/><path d="M17.1.1h0Z" fill="#bed8cb"/><path d="M18 15a5.8 5.8 0 0 0 .2 2.3 6 6 0 0 0 1.6 2.2 4.7 4.7 0 0 0 5.4.4 4.9 4.9 0 0 0 1.6-6.8c-.1-.2-.2-.4 0-.6a5.6 5.6 0 0 0 .5-.8 6.1 6.1 0 0 1 1.3 5.5 5.8 5.8 0 0 1-4.7 4.5 5.8 5.8 0 0 1-6.5-3.3 10.9 10.9 0 0 1-1.3 1.7 5.9 5.9 0 0 1-8.5-.2 6.1 6.1 0 0 1 .4-8.8l1.5-1h.3l1 .6c.1.1.3.1.2.3a7.1 7.1 0 0 0-1.8.8 4.4 4.4 0 0 0-1.9 3.7 4.4 4.4 0 0 0 1.2 3.4 4.5 4.5 0 0 0 5.9.9 4.8 4.8 0 0 0 2.1-5.3c0-.1-.1-.2 0-.3h.1a6.7 6.7 0 0 1 1.4.8zM17.1.1h.5a6.2 6.2 0 0 1 4.8 9.5 4.3 4.3 0 0 1 1.6.1c.2 0 .2.1.1.3H24a1 1 0 0 1-1.2.7 4.4 4.4 0 0 0-2.7.9l-.3.2-.6-.3-.6-.4c-.1 0-.3-.1-.2-.2l.3-.3a4.8 4.8 0 0 0 3.4-4.4 5.1 5.1 0 0 0-1.8-3.8 4.4 4.4 0 0 0-5.2-.4 5 5 0 0 0-2.4 3.4 5.9 5.9 0 0 0 .1 1.9c0 .1.1.3 0 .4h-.1a2.9 2.9 0 0 1-1.3-.8 5.6 5.6 0 0 1 1.3-4.5A5.5 5.5 0 0 1 17.1.1zm8.6 30.3h.4a2.2 2.2 0 0 1 .7 3.5 2.6 2.6 0 0 1-2.1.8h-2.4c-.2 0-.2-.1-.2-.3v-7.8c0-.1-.1-.2.2-.2a14.1 14.1 0 0 1 2.9.1l.9.2a1.8 1.8 0 0 1 1 1.9 1.8 1.8 0 0 1-1.1 1.7z" fill="#063"/><path d="M18.4 11l1.4.9a3 3 0 0 0-.8.8.8.8 0 0 1-1 .1l-3-1.7c-2.4-1.6-4.9-2.9-7.4-4.4a2.4 2.4 0 0 1-.9-2.2c0-.2.1-.3.3-.2l3.6 2.1.8.5 1.4.8.9.5 4.2 2.4a1 1 0 0 1 .5.4z" fill="#fecb00"/><path d="M17.2,26.4c.7,0,.7,0,1,.6l2.1,5.5.8,2c0,.2.1.3-.2.3s-1,0-1.3-.9a4.9,4.9,0,0,1-.4-1.1c-.1-.1-.1-.2-.3-.2H15.4c-.2,0-.2.1-.3.2l-.6,1.8c-.1.2-.2.2-.4.2a2.7,2.7,0,0,1-.9,0l.3-.9,2.1-5.3a13.4,13.4,0,0,0,.7-1.8c.1-.3.3-.5.6-.4Z" fill="#063"/><path d="M18 15l-1.5-.8-.4-.2-4.8-2.8-.3-.2a.5.5 0 0 0-.4-.3l-1.1-.6-.3-.3c-.4-.2-.7-.3-.5-.8s-.2-.8-.4-1.2l-.2-.3c.2-.1.2 0 .3.1l5.5 3.1c1.3.9 2.7 1.6 4 2.4a.6.6 0 0 1 .3.9c-.1.4-.1.7-.2 1z" fill="#fecb00"/><path d="M8.5 30.5l-.1-3.8c-.1-1.3.1-.3.4-.3h3.6c.3 0 .4 0 .4.3s0 .6-.6.6H9.9a.3.3 0 0 0-.3.3v2.1a.3.3 0 0 0 .3.3h2.4c.3 0 .3.1.3.3s0 .7-.6.7h-2c-.3 0-.4 0-.4.3v3.2c0 .2 0 .3-.3.3s-.8 0-.8-.9z" fill="#063"/><path d="M23.2 32.4a5.7 5.7 0 0 0 0-1.3c0-.1.1-.2.3-.2H25a1.4 1.4 0 0 1 1.2 1.3 1.3 1.3 0 0 1-1 1.4 11 11 0 0 1-1.8.2c-.2 0-.2-.2-.2-.3zm0-3.7v-1.2c0-.1 0-.2.2-.2H25a1.1 1.1 0 0 1 .9 1.2 1 1 0 0 1-.8 1.2 3.2 3.2 0 0 1-1.7.2c-.2 0-.2-.1-.2-.2zm-4.4 3h-3.2l1.6-4.2z" fill="#f5f6fa"/></svg>