<svg xmlns="http://www.w3.org/2000/svg" viewBox="0 0 512 512" xmlns:v="https://vecta.io/nano"><circle cx="256" cy="256" r="256" fill="#f0f0f0"/><path d="M52.92 100.142c-20.11 26.163-35.272 56.318-44.1 89.077h133.178L52.92 100.142zm450.26 89.077c-8.83-32.758-23.993-62.913-44.1-89.076l-89.075 89.076H503.18zM8.82 322.784c8.83 32.758 23.993 62.913 44.1 89.075l89.074-89.075H8.82zM411.858 52.92C385.695 32.812 355.54 17.65 322.782 8.82v133.177l89.076-89.075zM100.142 459.08c26.163 20.11 56.318 35.272 89.076 44.102V370.005l-89.076 89.074zM189.217 8.82c-32.758 8.83-62.913 23.993-89.075 44.1l89.075 89.075V8.82zM322.783 503.18c32.758-8.83 62.913-23.993 89.075-44.1l-89.075-89.075V503.18zm47.222-180.397l89.075 89.076c20.108-26.162 35.272-56.318 44.1-89.076H370.005z" fill="#0052b4"/><path d="M509.833 222.6h-220.44V2.167A258.556 258.556 0 0 0 256 0a258.48 258.48 0 0 0-33.39 2.167v220.44H2.167A258.556 258.556 0 0 0 0 256a258.48 258.48 0 0 0 2.167 33.39h220.44v220.442a258.35 258.35 0 0 0 66.783 0v-220.44h220.442A258.533 258.533 0 0 0 512 256a258.53 258.53 0 0 0-2.167-33.391zm-187.05 100.174L437.02 437.02a256.636 256.636 0 0 0 15.048-16.435l-97.802-97.802-31.482.001zm-133.566 0h-.002L74.98 437.02a256.636 256.636 0 0 0 16.435 15.048l97.802-97.804v-31.48zm0-133.565v-.002L74.98 74.98a256.636 256.636 0 0 0-15.048 16.435l97.803 97.803h31.48zm133.566 0L437.02 74.98a256.328 256.328 0 0 0-16.435-15.047l-97.802 97.803v31.482z" fill="#d80027"/></svg>